<svg width="80" height="80" viewBox="0 0 80 80" fill="none" xmlns="http://www.w3.org/2000/svg">
<path d="M38.118 60.7031V54.7394L38.4799 54.782C38.9483 54.837 40.9938 54.837 41.4622 54.782L41.8241 54.7394V60.7031V66.6667H39.9711H38.118V60.7031ZM53.3186 55.9507L49.0916 51.7207L49.2363 51.6047C49.9759 51.0122 50.9519 50.0362 51.5467 49.2943L51.6628 49.1495L55.864 53.3477C58.1746 55.6567 60.0652 57.5722 60.0652 57.6044C60.0652 57.6366 59.4982 58.2295 58.8053 58.9218L57.5455 60.1807L53.3186 55.9507ZM21.1072 58.8343L19.8194 57.5456L24.0375 53.3278L28.2555 49.11L28.4528 49.3603C28.9811 50.0307 29.9109 50.9637 30.6205 51.5353L30.8505 51.7206L26.6524 55.9219C24.3433 58.2325 22.4409 60.1231 22.4246 60.1231C22.4083 60.1231 21.8155 59.5431 21.1072 58.8343ZM13.3333 40.058V38.2338H19.2986H25.2638L25.2197 38.48C25.1626 38.799 25.1624 41.1166 25.2195 41.5491L25.2634 41.8821H19.2984H13.3333V40.058ZM54.7226 41.5491C54.7797 41.1166 54.7795 38.799 54.7224 38.48L54.6783 38.2338H60.6725H66.6667V40.058V41.8821H60.6727H54.6787L54.7226 41.5491ZM24.0315 26.6664L19.8187 22.4533L21.0789 21.1941C21.7719 20.5015 22.3649 19.9349 22.3966 19.9349C22.4283 19.9349 24.3433 21.8254 26.6524 24.1361L30.8505 28.3373L30.6205 28.5226C29.9181 29.0886 28.9256 30.0826 28.4808 30.6659C28.3911 30.7834 28.3013 30.8795 28.2811 30.8795C28.2609 30.8795 26.3486 28.9836 24.0315 26.6664ZM51.3584 30.5368C50.9983 30.0785 49.978 29.0581 49.4667 28.645L49.054 28.3115L53.2999 24.0653L57.5458 19.8191L58.8488 21.122L60.1517 22.425L55.9247 26.6522C53.5999 28.9772 51.682 30.8795 51.6627 30.8795C51.6434 30.8795 51.5065 30.7253 51.3584 30.5368ZM38.118 19.326V13.3334H39.9711H41.8241V19.326V25.3186L41.4622 25.276C41.2631 25.2526 40.5921 25.2335 39.9711 25.2335C39.35 25.2335 38.679 25.2526 38.4799 25.276L38.118 25.3186V19.326Z" fill="#4757E1"/>
</svg>
