<svg width="28" height="28" viewBox="0 0 28 28" fill="none" xmlns="http://www.w3.org/2000/svg">
<path fill-rule="evenodd" clip-rule="evenodd" d="M14.7022 3.15308C14.7022 9.72865 14.7022 16.2761 14.6882 22.8377C16.6833 20.8425 18.6644 18.8614 20.6455 16.8803C20.9827 17.2175 21.3199 17.5547 21.6571 17.8919C19.1 20.4491 16.5569 22.9922 13.9997 25.5494C11.4425 22.9922 8.88535 20.435 6.32819 17.8779C6.65134 17.5547 6.98855 17.2175 7.32576 16.8803C9.30687 18.8614 11.302 20.8566 13.2831 22.8377C13.2831 16.2902 13.2831 9.7146 13.2831 3.16713C13.7468 3.15308 14.2245 3.15308 14.7022 3.15308Z" fill="#4757E1"/>
<path fill-rule="evenodd" clip-rule="evenodd" d="M22.1521 17.8921L13.9997 26.0445L5.83322 17.878L7.32577 16.3855L12.9331 21.9928L12.9331 2.82772L13.2725 2.81743C13.7415 2.80322 14.2236 2.80322 14.6994 2.80322L15.0522 2.80322L15.0522 3.15322C15.0522 9.44538 15.0522 15.713 15.0399 21.9911L20.6455 16.3855L22.1521 17.8921ZM20.6455 17.3754L14.3364 23.6846L14.3382 22.8371C14.352 16.3925 14.3522 9.96134 14.3522 3.50343C14.1099 3.50386 13.8699 3.50517 13.6331 3.5092L13.6331 23.6828L7.32577 17.3754L6.82317 17.878L13.9997 25.0546L21.1622 17.8921L20.6455 17.3754Z" fill="#4757E1"/>
</svg>
