<svg width="24" height="24" viewBox="0 0 24 24" fill="none" xmlns="http://www.w3.org/2000/svg">
    <path
        d="M12.0001 11.1424L6.77202 5.91432L5.91456 6.77178L11.1427 11.9999L5.91456 17.228L6.77202 18.0855L12.0001 12.8574L17.2283 18.0855L18.0857 17.228L12.8576 11.9999L18.0857 6.77178L17.2283 5.91432L12.0001 11.1424Z"
        fill="#292C46" />
    <path fill-rule="evenodd" clip-rule="evenodd"
        d="M5.34888 6.77178L6.77202 5.34863L12.0001 10.5768L17.2283 5.34863L18.6514 6.77178L13.4233 11.9999L18.6514 17.228L17.2283 18.6512L12.0001 13.423L6.77202 18.6512L5.34888 17.228L10.577 11.9999L5.34888 6.77178ZM6.48025 6.77178L11.7084 11.9999L6.48025 17.228L6.77202 17.5198L12.0001 12.2917L17.2283 17.5198L17.52 17.228L12.2919 11.9999L17.52 6.77178L17.2283 6.48L12.0001 11.7081L6.77202 6.48L6.48025 6.77178Z"
        fill="#292C46" />
</svg>