<svg width="156" height="156" viewBox="0 0 156 156" fill="none" xmlns="http://www.w3.org/2000/svg">
<path fill-rule="evenodd" clip-rule="evenodd" d="M86.7924 35.324C87.9202 36.0126 89.0152 36.7545 90.0735 37.5473L114.023 3.44443L110.771 1.17944L86.7924 35.324ZM93.6871 40.5885C94.6446 41.4918 95.561 42.4422 96.4323 43.4372L126.981 15.0257L124.272 12.1433L93.6871 40.5885ZM99.3273 47.1496C100.074 48.229 100.773 49.3486 101.419 50.5062L137.112 29.053L135.06 25.6672L99.3273 47.1496ZM103.499 54.7935C104.002 56.0042 104.451 57.2481 104.844 58.523L144.313 44.9356L143.012 41.1475L103.499 54.7935ZM105.983 63.1317C106.229 64.4411 106.411 65.7489 106.53 67.0517L147.97 61.9209L147.478 57.9803L105.983 63.1317ZM106.692 71.7609C106.662 73.0885 106.568 74.4063 106.412 75.7103L147.984 79.277L148.336 75.3338L106.692 71.7609ZM105.597 80.3132C105.293 81.5992 104.928 82.8665 104.506 84.111L144.409 96.2541L145.56 92.4942L105.597 80.3132ZM102.723 88.5186C102.158 89.7128 101.538 90.879 100.864 92.0131L137.346 112.144L139.277 108.713L102.723 88.5186ZM98.2195 95.9375C97.4209 96.9889 96.5719 98.0033 95.6748 98.9767L127.156 126.232L129.745 123.21L98.2195 95.9375ZM92.2676 102.275C91.2718 103.134 90.2323 103.948 89.1513 104.714L114.241 137.898L117.4 135.516L92.2676 102.275ZM85.1185 107.234C83.9674 107.864 82.7793 108.443 81.5566 108.967L99.1591 146.591L102.771 144.946L85.1185 107.234ZM74.5293 111.264C74.0964 111.365 73.6636 111.458 73.2309 111.544L82.6212 152.04L86.4272 151.158L77.0237 110.605C76.2046 110.849 75.373 111.069 74.5293 111.264ZM68.4755 112.21C67.1801 112.316 65.8902 112.36 64.6089 112.345L65.3147 153.947L69.2893 153.868L68.4755 112.21ZM59.7808 112.002C58.4546 111.829 57.1431 111.593 55.8502 111.295L47.961 152.161L51.8629 152.907L59.7808 112.002ZM51.3364 109.983C50.085 109.541 48.8572 109.039 47.6574 108.482L31.422 146.834L35.0856 148.372L51.3364 109.983ZM43.518 106.267C42.3898 105.579 41.2943 104.838 40.2356 104.046L16.3297 138.188L19.5815 140.453L43.518 106.267Z" fill="#4757E1"/>
</svg>
