<svg width="32" height="32" viewBox="0 0 32 32" fill="none" xmlns="http://www.w3.org/2000/svg">
<path fill-rule="evenodd" clip-rule="evenodd" d="M16 8C18.9649 8 22.1274 9.29555 25.1769 11.7424C26.5449 12.833 27.7956 14.0749 28.907 15.4464L29.3334 16L28.907 16.5536C28.6726 16.8568 23.0874 24 16 24C13.0352 24 9.87267 22.7045 6.82312 20.2576C5.45508 19.1671 4.20443 17.9251 3.09306 16.5536L2.66669 16L3.09306 15.4464C3.32742 15.1432 8.91263 8 16 8ZM4.87761 16C6.29792 17.6194 10.8045 22.2333 16 22.2333C21.2069 22.2333 25.7049 17.6224 27.1224 16C25.7021 14.3806 21.2069 9.76665 16 9.76665C10.7932 9.76665 6.28945 14.3806 4.87761 16ZM12.9819 11.6024C13.8489 11.0073 14.8725 10.6818 15.9239 10.6668C17.3481 10.6579 18.7177 11.2145 19.7319 12.2145C20.7461 13.2145 21.3221 14.5761 21.3334 16.0003C21.3332 17.0519 21.0223 18.0801 20.4395 18.9554C19.8568 19.8308 19.0283 20.5144 18.0582 20.9202C17.0881 21.326 16.0196 21.436 14.9872 21.2363C13.9548 21.0366 13.0044 20.5361 12.2556 19.7978C11.5068 19.0595 10.9929 18.1163 10.7786 17.0867C10.5643 16.0572 10.6591 14.9873 11.0512 14.0114C11.4432 13.0356 12.1149 12.1975 12.9819 11.6024ZM13.9955 18.8666C14.5624 19.2615 15.2333 19.4801 15.9239 19.4951V19.5073C16.8637 19.5162 17.7687 19.1521 18.4404 18.4946C19.1121 17.8372 19.4956 16.9402 19.5069 16.0003C19.5091 15.3095 19.3073 14.6333 18.9266 14.0568C18.546 13.4802 18.0036 13.029 17.3675 12.7596C16.7313 12.4902 16.0298 12.4147 15.3509 12.5426C14.672 12.6705 14.046 12.996 13.5514 13.4784C13.0569 13.9608 12.7158 14.5785 12.5711 15.254C12.4263 15.9295 12.4843 16.6328 12.7377 17.2755C12.9911 17.9182 13.4287 18.4717 13.9955 18.8666Z" fill="white"/>
</svg>
