<svg width="330" height="50" viewBox="0 0 330 50" fill="none" xmlns="http://www.w3.org/2000/svg">
<g clip-path="url(#clip0_2032_134)">
<path fill-rule="evenodd" clip-rule="evenodd" d="M26.778 34.661C28.587 36.8414 35.4389 36.2569 37.9708 34.7919C36.1248 33.2355 29.1609 33.7991 26.778 34.661Z" fill="white"/>
<path fill-rule="evenodd" clip-rule="evenodd" d="M35.0613 35.7351C36.8704 36.7374 43.7227 36.4687 46.2542 35.7951C44.4082 35.0801 37.4447 35.3392 35.0613 35.7351Z" fill="white"/>
<path fill-rule="evenodd" clip-rule="evenodd" d="M44.6241 41.1342C46.4332 43.3146 53.2855 42.7301 55.8169 41.2646C53.9709 39.7087 47.007 40.2724 44.6241 41.1342Z" fill="white"/>
<path fill-rule="evenodd" clip-rule="evenodd" d="M31.7611 39.8546C33.5702 42.0355 40.4225 41.451 42.9539 39.9855C41.108 38.4296 34.1445 38.9928 31.7611 39.8546Z" fill="white"/>
<path fill-rule="evenodd" clip-rule="evenodd" d="M39.5931 34.3105C41.4022 35.5951 48.2545 35.2505 50.786 34.3874C48.94 33.4705 41.9761 33.8028 39.5931 34.3105Z" fill="white"/>
<path fill-rule="evenodd" clip-rule="evenodd" d="M29.8304 37.4615C32.1742 38.7465 41.0515 38.402 44.3308 37.5388C41.9396 36.622 32.9184 36.9542 29.8304 37.4615Z" fill="white"/>
<path fill-rule="evenodd" clip-rule="evenodd" d="M43.6986 36.4491C44.9803 37.1423 49.8359 36.9564 51.6295 36.4909C50.3218 35.9964 45.3874 36.1755 43.6986 36.4491Z" fill="white"/>
<path fill-rule="evenodd" clip-rule="evenodd" d="M45.3314 39.2455C47.6497 40.3405 56.43 40.0468 59.6742 39.3114C57.309 38.53 48.3852 38.8127 45.3314 39.2455Z" fill="white"/>
<path fill-rule="evenodd" clip-rule="evenodd" d="M40.4835 42.2314C41.7656 43.7764 46.6208 43.3619 48.4148 42.3241C47.1068 41.2214 42.1723 41.6205 40.4835 42.2314Z" fill="white"/>
<path fill-rule="evenodd" clip-rule="evenodd" d="M50.6179 34.3088C53.0049 35.8538 62.0466 35.4397 65.3869 34.4015C62.9516 33.2988 53.7628 33.6979 50.6179 34.3088Z" fill="white"/>
<path fill-rule="evenodd" clip-rule="evenodd" d="M48.3283 37.0609C50.7153 38.6064 59.757 38.1918 63.0974 37.1536C60.662 36.0514 51.4732 36.4504 48.3283 37.0609Z" fill="white"/>
<path fill-rule="evenodd" clip-rule="evenodd" d="M65.1924 32.3533H25.9677C30.4312 26.3969 37.5554 22.5405 45.5801 22.5405C53.6047 22.5405 60.729 26.3969 65.1924 32.3533Z" fill="white"/>
<path fill-rule="evenodd" clip-rule="evenodd" d="M44.7667 3.51416H46.4291V18.7655H44.7667V3.51416Z" fill="white"/>
<path fill-rule="evenodd" clip-rule="evenodd" d="M90.6228 25.96L90.8528 27.6031L69.1103 30.3131L68.8798 28.67L90.6228 25.96Z" fill="white"/>
<path fill-rule="evenodd" clip-rule="evenodd" d="M75.3778 21.4692L75.8929 23.0465L65.5368 26.4097L65.0212 24.8324L75.3778 21.4692Z" fill="white"/>
<path fill-rule="evenodd" clip-rule="evenodd" d="M68.4002 19.9719L69.1253 21.4651L63.0746 24.4537L62.3491 22.9606L68.4002 19.9719Z" fill="white"/>
<path fill-rule="evenodd" clip-rule="evenodd" d="M66.2782 13.386L67.3718 14.636L58.9117 22.0478L57.8177 20.7983L66.2782 13.386Z" fill="white"/>
<path fill-rule="evenodd" clip-rule="evenodd" d="M60.918 10.5659L62.2393 11.5732L55.4293 20.52L54.108 19.5127L60.918 10.5659Z" fill="white"/>
<path fill-rule="evenodd" clip-rule="evenodd" d="M53.1716 13.3386L54.6751 14.0464L52.2871 19.6623L50.7832 18.9545L53.1716 13.3386Z" fill="white"/>
<path fill-rule="evenodd" clip-rule="evenodd" d="M49.6951 7.98682L51.3092 8.38545L49.1372 19.1745L47.5235 18.7759L49.6951 7.98682Z" fill="white"/>
<path fill-rule="evenodd" clip-rule="evenodd" d="M41.8595 10.1582L40.2454 10.5568L41.8631 19.1309L43.4768 18.7323L41.8595 10.1582Z" fill="white"/>
<path fill-rule="evenodd" clip-rule="evenodd" d="M37.9931 16.49L36.5675 17.3445L37.9949 19.8682L39.4205 19.0141L37.9931 16.49Z" fill="white"/>
<path fill-rule="evenodd" clip-rule="evenodd" d="M26.6901 12.2346L25.5086 13.4019L33.5488 21.5228L34.7307 20.3555L26.6901 12.2346Z" fill="white"/>
<path fill-rule="evenodd" clip-rule="evenodd" d="M22.56 16.6423L21.6669 18.0419L30.2431 23.4601L31.1367 22.061L22.56 16.6423Z" fill="white"/>
<path fill-rule="evenodd" clip-rule="evenodd" d="M9.6975 16.3005L8.80389 17.6996L27.3992 25.4614L28.2928 24.0619L9.6975 16.3005Z" fill="white"/>
<path fill-rule="evenodd" clip-rule="evenodd" d="M0.462681 26.1697L-6.10352e-05 27.7633L22.8037 30.2869L23.2664 28.6933L0.462681 26.1697Z" fill="white"/>
<path fill-rule="evenodd" clip-rule="evenodd" d="M15.9978 23.9529L15.2996 25.4588L24.9612 27.9879L25.6599 26.482L15.9978 23.9529Z" fill="white"/>
<path d="M129.087 22.1632H123.552C123.002 24.3968 121.589 26.1205 118.84 26.1205C117.348 26.1205 116.132 25.5718 115.346 24.6705C114.286 23.4955 113.973 22.1632 113.973 16.7955C113.973 11.4277 114.286 10.0955 115.346 8.92C116.132 8.01863 117.348 7.47045 118.84 7.47045C121.589 7.47045 123.002 9.19454 123.552 11.4277H129.087C128.106 5.58954 124.023 2.61182 118.801 2.61182C115.739 2.61182 113.227 3.70909 111.264 5.66773C108.437 8.48909 108.515 11.9764 108.515 16.7955C108.515 21.6145 108.437 25.1018 111.264 27.9227C113.227 29.8818 115.739 30.9791 118.801 30.9791C123.983 30.9791 128.106 28.0009 129.087 22.1632ZM113.752 36.925H120.207V44.9032H119.32V37.7245H114.639V44.9032H113.752V36.925ZM123.59 41.7782V44.9032H122.703V36.9141H126.518C126.995 36.9141 127.391 36.9945 127.706 37.1559C128.02 37.3177 128.255 37.5682 128.411 37.9095C128.566 38.2514 128.645 38.6827 128.645 39.2077C128.645 39.8527 128.556 40.3614 128.377 40.7364C128.2 41.1109 127.916 41.3777 127.528 41.5377C127.14 41.6982 126.618 41.7782 125.962 41.7782H123.59ZM123.59 40.9995H125.716C126.237 40.9995 126.637 40.9618 126.921 40.8859C127.202 40.8086 127.411 40.6545 127.544 40.4236C127.679 40.1923 127.747 39.8441 127.747 39.3782C127.747 38.7577 127.651 38.3241 127.458 38.075C127.266 37.8282 126.913 37.7036 126.401 37.7036H123.59V40.9995ZM130.489 40.9141C130.489 41.79 130.538 42.4868 130.64 43.0064C130.741 43.5254 130.914 43.9286 131.158 44.2168C131.404 44.5064 131.737 44.7054 132.159 44.8191C132.582 44.9314 133.143 44.9882 133.843 44.9882C134.549 44.9882 135.116 44.9314 135.542 44.8191C135.967 44.7054 136.302 44.5064 136.544 44.2204C136.787 43.9341 136.958 43.5286 137.059 43.0064C137.161 42.4855 137.211 41.7868 137.211 40.9141C137.211 40.0359 137.161 39.3355 137.062 38.8109C136.963 38.2886 136.792 37.8832 136.548 37.595C136.304 37.3091 135.972 37.1082 135.552 36.9964C135.134 36.8841 134.569 36.8286 133.864 36.8286C133.153 36.8286 132.585 36.8841 132.161 36.9964C131.739 37.1082 131.404 37.3091 131.16 37.5968C130.916 37.885 130.743 38.29 130.642 38.8109C130.54 39.3305 130.489 40.0323 130.489 40.9141ZM131.386 40.9141C131.386 40.1427 131.413 39.5541 131.467 39.1454C131.522 38.7382 131.63 38.42 131.794 38.1941C131.958 37.9668 132.197 37.8123 132.508 37.73C132.822 37.6486 133.269 37.6077 133.853 37.6077C134.432 37.6077 134.879 37.6486 135.191 37.73C135.502 37.8123 135.742 37.9668 135.904 38.1923C136.067 38.4182 136.176 38.7364 136.229 39.1454C136.284 39.5523 136.311 40.1427 136.311 40.9141C136.311 41.6786 136.283 42.2632 136.227 42.67C136.172 43.0777 136.062 43.3936 135.9 43.6195C135.738 43.8454 135.499 44 135.182 44.0832C134.867 44.1686 134.425 44.2095 133.853 44.2095C133.285 44.2095 132.843 44.1686 132.526 44.0832C132.209 44 131.969 43.8455 131.805 43.6177C131.641 43.3918 131.529 43.0723 131.472 42.6614C131.415 42.2491 131.386 41.6677 131.386 40.9141ZM139.321 36.9141H140.209V44.2968L144.761 36.9141H146.182V44.9032H145.295V37.5968L140.73 44.9032H139.321V36.9141ZM152.226 41.2127H150.365V40.4341H152.171C152.602 40.4341 152.928 40.395 153.149 40.3168C153.368 40.2382 153.523 40.0964 153.61 39.8882C153.697 39.6786 153.742 39.3709 153.742 38.9636C153.742 38.6245 153.676 38.3559 153.544 38.1604C153.41 37.965 153.197 37.8264 152.901 37.7427C152.606 37.6591 152.199 37.6182 151.681 37.6182C151.125 37.6182 150.703 37.6645 150.413 37.7568C150.123 37.8509 149.916 38.0095 149.793 38.2332C149.67 38.4591 149.593 38.79 149.563 39.2291H148.697C148.719 38.7186 148.79 38.3064 148.913 37.9936C149.036 37.6805 149.216 37.4404 149.453 37.2736C149.691 37.1059 149.985 36.9909 150.336 36.9305C150.687 36.87 151.135 36.8395 151.681 36.8395C152.393 36.8395 152.965 36.9055 153.398 37.0373C153.829 37.1668 154.144 37.38 154.342 37.675C154.54 37.9705 154.639 38.3632 154.639 38.8573C154.639 39.4727 154.534 39.9309 154.324 40.2295C154.115 40.53 153.775 40.715 153.303 40.7859C153.869 40.8609 154.254 41.0527 154.465 41.3604C154.673 41.6695 154.779 42.1423 154.779 42.7804C154.779 43.3245 154.673 43.7582 154.463 44.08C154.253 44.4 153.923 44.6327 153.475 44.775C153.026 44.9173 152.428 44.9882 151.679 44.9882C150.845 44.9882 150.208 44.9241 149.766 44.7941C149.323 44.6645 149.011 44.4427 148.831 44.13C148.65 43.815 148.559 43.3654 148.559 42.7804V42.5118H149.413V42.77C149.413 43.2 149.47 43.5145 149.588 43.7123C149.704 43.9109 149.918 44.0423 150.228 44.1105C150.537 44.1759 151.022 44.2095 151.681 44.2095C152.135 44.2095 152.506 44.1777 152.791 44.1136C153.077 44.0495 153.298 43.9536 153.455 43.8277C153.612 43.6995 153.722 43.5432 153.786 43.3527C153.849 43.1645 153.88 42.9295 153.88 42.6523C153.88 42.1709 153.751 41.81 153.492 41.5695C153.232 41.3318 152.81 41.2127 152.226 41.2127ZM157.832 41.1809V44.1032H160.3C160.683 44.1032 160.984 44.0873 161.207 44.0568C161.43 44.025 161.613 43.9609 161.757 43.8632C161.9 43.7673 162.004 43.6232 162.071 43.4309C162.136 43.2409 162.171 42.9814 162.171 42.6545C162.171 42.2204 162.127 41.8986 162.04 41.6927C161.955 41.4864 161.81 41.3495 161.608 41.2818C161.403 41.2145 161.093 41.1809 160.673 41.1809H157.832ZM157.832 37.7036V40.4018H160.375C160.777 40.4018 161.089 40.3614 161.313 40.2795C161.536 40.1973 161.697 40.0532 161.791 39.8477C161.887 39.6414 161.935 39.3464 161.935 38.9636C161.935 38.4768 161.848 38.1445 161.675 37.9686C161.502 37.7927 161.176 37.7036 160.695 37.7036H157.832ZM161.025 44.9032H156.944V36.9141H160.801C161.501 36.9141 162.015 37.0654 162.343 37.3695C162.669 37.6736 162.833 38.18 162.833 38.8891C162.833 39.2291 162.812 39.51 162.767 39.7282C162.723 39.9486 162.626 40.1409 162.48 40.3077C162.335 40.475 162.117 40.61 161.828 40.7114C162.172 40.8073 162.434 40.9336 162.612 41.0936C162.79 41.2514 162.911 41.4491 162.974 41.6873C163.036 41.9236 163.068 42.2314 163.068 42.61C163.068 43.3654 162.911 43.9373 162.6 44.3236C162.288 44.7091 161.763 44.9032 161.025 44.9032ZM164.996 40.9141C164.996 41.79 165.045 42.4868 165.147 43.0064C165.248 43.5254 165.421 43.9286 165.665 44.2168C165.911 44.5064 166.244 44.7054 166.666 44.8191C167.089 44.9314 167.65 44.9882 168.349 44.9882C169.057 44.9882 169.623 44.9314 170.049 44.8191C170.474 44.7054 170.809 44.5064 171.052 44.2204C171.294 43.9341 171.465 43.5286 171.566 43.0064C171.668 42.4855 171.718 41.7868 171.718 40.9141C171.718 40.0359 171.668 39.3355 171.57 38.8109C171.47 38.2886 171.299 37.8832 171.055 37.595C170.811 37.3091 170.48 37.1082 170.059 36.9964C169.641 36.8841 169.076 36.8286 168.371 36.8286C167.66 36.8286 167.092 36.8841 166.668 36.9964C166.246 37.1082 165.911 37.3091 165.667 37.5968C165.423 37.885 165.25 38.29 165.149 38.8109C165.047 39.3305 164.996 40.0323 164.996 40.9141ZM165.893 40.9141C165.893 40.1427 165.92 39.5541 165.974 39.1454C166.029 38.7382 166.137 38.42 166.301 38.1941C166.465 37.9668 166.704 37.8123 167.015 37.73C167.329 37.6486 167.776 37.6077 168.36 37.6077C168.939 37.6077 169.386 37.6486 169.698 37.73C170.009 37.8123 170.248 37.9668 170.41 38.1923C170.574 38.4182 170.683 38.7364 170.736 39.1454C170.792 39.5523 170.818 40.1427 170.818 40.9141C170.818 41.6786 170.79 42.2632 170.735 42.67C170.679 43.0777 170.569 43.3936 170.407 43.6195C170.245 43.8454 170.006 44 169.689 44.0832C169.374 44.1686 168.932 44.2095 168.36 44.2095C167.792 44.2095 167.35 44.1686 167.034 44.0832C166.717 44 166.476 43.8455 166.312 43.6177C166.148 43.3918 166.036 43.0723 165.979 42.6614C165.922 42.2491 165.893 41.6677 165.893 40.9141ZM173.925 44.1136C174.124 43.815 174.283 43.5077 174.404 43.1914C174.523 42.8745 174.609 42.5386 174.66 42.1868C174.712 41.835 174.737 41.4491 174.737 41.0314V36.9141H180.177V44.1136H180.754V46.7391H179.941V44.9032H174.245V46.7391H173.433V44.1136H173.925ZM179.29 37.7141H175.613V40.9141C175.613 41.33 175.601 41.6873 175.576 41.9859C175.551 42.2845 175.512 42.555 175.458 42.7964C175.405 43.0382 175.336 43.2641 175.248 43.4736C175.161 43.6836 175.056 43.8964 174.929 44.1136H179.29V37.7141ZM187.939 42.2364H188.805C188.805 42.9459 188.714 43.4973 188.53 43.8882C188.348 44.2791 188.03 44.5618 187.576 44.7323C187.121 44.9032 186.475 44.9882 185.633 44.9882C184.995 44.9882 184.477 44.9332 184.081 44.8214C183.684 44.7091 183.365 44.51 183.125 44.2259C182.884 43.9414 182.71 43.5341 182.601 43.0064C182.492 42.48 182.437 41.7886 182.437 40.935C182.437 40.0836 182.49 39.3941 182.597 38.8627C182.704 38.3314 182.878 37.9191 183.121 37.6236C183.365 37.3291 183.685 37.1223 184.084 37.005C184.483 36.8877 185 36.8286 185.633 36.8286C186.265 36.8286 186.776 36.8809 187.17 36.9818C187.561 37.085 187.864 37.2414 188.078 37.4545C188.29 37.6664 188.439 37.9273 188.525 38.2423C188.612 38.5554 188.669 38.9586 188.698 39.4527L187.834 39.4418C187.779 38.9177 187.7 38.5336 187.599 38.2936C187.497 38.0536 187.3 37.8795 187.008 37.7714C186.715 37.6627 186.258 37.6077 185.633 37.6077C185.16 37.6077 184.779 37.6541 184.489 37.7459C184.201 37.8405 183.971 38.0041 183.801 38.2423C183.633 38.4786 183.513 38.8109 183.442 39.2395C183.37 39.6682 183.335 40.2332 183.335 40.935C183.335 41.6445 183.37 42.2077 183.44 42.6259C183.509 43.0436 183.629 43.3673 183.796 43.5995C183.966 43.8332 184.193 43.9927 184.482 44.08C184.77 44.1673 185.155 44.2095 185.633 44.2095C186.117 44.2095 186.507 44.1791 186.803 44.1191C187.1 44.0604 187.33 43.9573 187.496 43.8132C187.661 43.6695 187.775 43.4736 187.841 43.225C187.907 42.9759 187.939 42.6455 187.939 42.2364ZM192.779 44.9032V37.7245H190.16V36.9141H196.272L196.262 37.7245H193.677V44.9032H192.779ZM199.057 41.1809V44.1032H201.526C201.909 44.1032 202.21 44.0873 202.433 44.0568C202.656 44.025 202.839 43.9609 202.983 43.8632C203.126 43.7673 203.23 43.6232 203.297 43.4309C203.362 43.2409 203.396 42.9814 203.396 42.6545C203.396 42.2204 203.353 41.8986 203.266 41.6927C203.181 41.4864 203.036 41.3495 202.834 41.2818C202.629 41.2145 202.319 41.1809 201.899 41.1809H199.057ZM199.057 37.7036V40.4018H201.601C202.003 40.4018 202.315 40.3614 202.539 40.2795C202.762 40.1973 202.923 40.0532 203.017 39.8477C203.113 39.6414 203.161 39.3464 203.161 38.9636C203.161 38.4768 203.074 38.1445 202.901 37.9686C202.728 37.7927 202.402 37.7036 201.921 37.7036H199.057ZM202.251 44.9032H198.17V36.9141H202.027C202.727 36.9141 203.241 37.0654 203.569 37.3695C203.895 37.6736 204.059 38.18 204.059 38.8891C204.059 39.2291 204.038 39.51 203.993 39.7282C203.949 39.9486 203.853 40.1409 203.706 40.3077C203.56 40.475 203.343 40.61 203.054 40.7114C203.398 40.8073 203.66 40.9336 203.838 41.0936C204.016 41.2514 204.137 41.4491 204.2 41.6873C204.262 41.9236 204.294 42.2314 204.294 42.61C204.294 43.3654 204.137 43.9373 203.826 44.3236C203.514 44.7091 202.989 44.9032 202.251 44.9032ZM207.386 40.4236H211.458V41.2018H207.386V44.1032H211.631V44.9032H206.499V36.9141H211.65V37.7036H207.386V40.4236ZM214.734 40.4445H219.415V36.925H220.302V44.9032H219.415V41.2236H214.734V44.9032H213.847V36.925H214.734V40.4445ZM223.695 40.4445H228.377V36.925H229.263V44.9032H228.377V41.2236H223.695V44.9032H222.809V36.925H223.695V40.4445ZM231.278 44.9032L234.197 36.9141H235.488L238.471 44.9032H237.521L236.921 43.2604H232.883L232.24 44.9032H231.278ZM236.634 42.4818L234.86 37.5755L233.096 42.4818H236.634ZM245.433 41.7141H242.954L241.171 44.9032H240.09L241.981 41.5964C241.449 41.5009 241.021 41.2536 240.695 40.8514C240.369 40.45 240.207 39.9168 240.207 39.25C240.207 38.4359 240.421 37.8423 240.848 37.4709C241.274 37.0991 241.915 36.9141 242.772 36.9141H246.32V44.9032H245.433V41.7141ZM245.433 40.9459V37.7141H242.589C242.038 37.7141 241.654 37.8532 241.434 38.1323C241.215 38.4109 241.105 38.8482 241.105 39.4436C241.105 39.9291 241.269 40.3009 241.597 40.5586C241.924 40.8164 242.398 40.9459 243.018 40.9459H245.433ZM254.833 36.9141V40.4018H255.634L258.892 36.9141H260.091L256.414 40.7755L260.518 44.9032H259.289L255.624 41.1914H254.833V44.9032H253.946V36.9141H254.833ZM262.052 40.9141C262.052 41.79 262.102 42.4868 262.204 43.0064C262.305 43.5254 262.477 43.9286 262.722 44.2168C262.967 44.5064 263.3 44.7054 263.723 44.8191C264.145 44.9314 264.706 44.9882 265.406 44.9882C266.113 44.9882 266.68 44.9314 267.105 44.8191C267.531 44.7054 267.866 44.5064 268.108 44.2204C268.35 43.9341 268.521 43.5286 268.623 43.0064C268.724 42.4855 268.774 41.7868 268.774 40.9141C268.774 40.0359 268.724 39.3355 268.626 38.8109C268.527 38.2886 268.356 37.8832 268.111 37.595C267.867 37.3091 267.536 37.1082 267.116 36.9964C266.697 36.8841 266.132 36.8286 265.427 36.8286C264.717 36.8286 264.148 36.8841 263.724 36.9964C263.303 37.1082 262.967 37.3091 262.723 37.5968C262.479 37.885 262.307 38.29 262.205 38.8109C262.103 39.3305 262.052 40.0323 262.052 40.9141ZM262.95 40.9141C262.95 40.1427 262.977 39.5541 263.03 39.1454C263.085 38.7382 263.194 38.42 263.358 38.1941C263.521 37.9668 263.76 37.8123 264.072 37.73C264.385 37.6486 264.833 37.6077 265.416 37.6077C265.995 37.6077 266.443 37.6486 266.755 37.73C267.066 37.8123 267.305 37.9668 267.467 38.1923C267.631 38.4182 267.739 38.7364 267.793 39.1454C267.848 39.5523 267.875 40.1427 267.875 40.9141C267.875 41.6786 267.846 42.2632 267.791 42.67C267.736 43.0777 267.625 43.3936 267.463 43.6195C267.301 43.8454 267.062 44 266.745 44.0832C266.43 44.1686 265.989 44.2095 265.416 44.2095C264.849 44.2095 264.407 44.1686 264.09 44.0832C263.773 44 263.532 43.8455 263.368 43.6177C263.204 43.3918 263.092 43.0723 263.035 42.6614C262.978 42.2491 262.95 41.6677 262.95 40.9141ZM272.469 36.9036L275.288 43.7618L278.13 36.9036H279.595V44.9032H278.708V37.5541L275.685 44.9032H274.916L271.868 37.6309V44.9032H270.981V36.9036H272.469ZM282.178 36.925H288.632V44.9032H287.746V37.7245H283.064V44.9032H282.178V36.925ZM290.647 44.9032L293.567 36.9141H294.858L297.84 44.9032H296.89L296.29 43.2604H292.252L291.609 44.9032H290.647ZM296.003 42.4818L294.229 37.5755L292.466 42.4818H296.003ZM300.677 40.4445H305.358V36.925H306.245V44.9032H305.358V41.2236H300.677V44.9032H299.79V36.925H300.677V40.4445ZM308.72 36.9141H309.607V44.2968L314.159 36.9141H315.58V44.9032H314.694V37.5968L310.129 44.9032H308.72V36.9141ZM323.108 41.7141H320.629L318.845 44.9032H317.764L319.656 41.5964C319.123 41.5009 318.696 41.2536 318.37 40.8514C318.044 40.45 317.882 39.9168 317.882 39.25C317.882 38.4359 318.095 37.8423 318.523 37.4709C318.949 37.0991 319.59 36.9141 320.447 36.9141H323.995V44.9032H323.108V41.7141ZM323.108 40.9459V37.7141H320.263C319.713 37.7141 319.328 37.8532 319.109 38.1323C318.89 38.4109 318.78 38.8482 318.78 39.4436C318.78 39.9291 318.943 40.3009 319.271 40.5586C319.599 40.8164 320.072 40.9459 320.692 40.9459H323.108ZM152.721 14.8359C152.721 10.3305 151.897 7.66591 149.934 5.66773C147.971 3.66954 145.38 2.61182 142.396 2.61182C139.373 2.61182 136.782 3.66954 134.819 5.66773C132.66 7.86182 132.071 10.0955 132.071 15.6591V17.9705C132.071 20.9877 132.11 25.1409 134.819 27.9227C136.782 29.9209 139.373 30.9791 142.396 30.9791C145.419 30.9791 147.971 29.96 149.934 27.9227C152.682 25.1018 152.721 21.4577 152.721 17.8136V14.8359ZM147.264 16.2859C147.264 21.9673 147.029 23.3386 145.89 24.6314C145.026 25.6109 143.809 26.1205 142.396 26.1205C140.982 26.1205 139.805 25.5718 138.863 24.6314C137.567 23.3386 137.528 20.7132 137.528 17.8136V16.4036C137.528 12.9555 137.607 10.3305 138.863 8.95909C139.726 7.97954 140.982 7.47045 142.396 7.47045C143.809 7.47045 145.026 7.97954 145.89 8.95909C146.989 10.1736 147.264 11.7018 147.264 16.2859ZM177.886 30.7436V2.84682H160.495V15.5023C160.495 24.24 158.492 25.8855 155.705 25.8855H154.92V30.7436H157.079C162.889 30.7436 165.755 27.5309 165.755 15.8155V7.70545H172.43V30.7436H177.886ZM204.818 30.7436V2.84682H199.362V14.2486H189.9V2.84682H184.443V30.7436H189.9V19.0677H199.362V30.7436H204.818ZM239.877 30.7436V2.84682H234.42V30.7436H239.877ZM231.397 22.0455C231.397 16.9523 227.785 13.3473 222.328 13.3473H216.792V2.84682H211.335V30.7436H222.328C227.746 30.7436 231.397 27.1391 231.397 22.0455ZM225.94 22.0455C225.94 24.3577 224.369 25.8855 221.896 25.8855H216.792V18.2055H221.896C224.369 18.2055 225.94 19.7727 225.94 22.0455ZM278.666 30.7436V2.84682H273.208V25.8855H265.278V2.84682H259.821V25.8855H251.851V2.84682H246.394V30.7436H278.666ZM290.718 30.7436V16.1682L300.533 30.7436H307.207L296.882 15.9332L306.265 2.84682H299.748L290.718 16.09V2.84682H285.261V30.7436H290.718ZM329.232 14.8359C329.232 10.3305 328.407 7.66591 326.444 5.66773C324.481 3.66954 321.89 2.61182 318.906 2.61182C315.883 2.61182 313.292 3.66954 311.33 5.66773C309.17 7.86182 308.581 10.0955 308.581 15.6591V17.9705C308.581 20.9877 308.62 25.1409 311.33 27.9227C313.292 29.9209 315.883 30.9791 318.906 30.9791C321.929 30.9791 324.481 29.96 326.444 27.9227C329.193 25.1018 329.232 21.4577 329.232 17.8136V14.8359ZM323.774 16.2859C323.774 21.9673 323.539 23.3386 322.4 24.6314C321.537 25.6109 320.319 26.1205 318.906 26.1205C317.493 26.1205 316.315 25.5718 315.373 24.6314C314.077 23.3386 314.038 20.7132 314.038 17.8136V16.4036C314.038 12.9555 314.117 10.3305 315.373 8.95909C316.237 7.97954 317.493 7.47045 318.906 7.47045C320.319 7.47045 321.537 7.97954 322.4 8.95909C323.499 10.1736 323.774 11.7018 323.774 16.2859Z" fill="white"/>
</g>
<defs>
<clipPath id="clip0_2032_134">
<rect width="330" height="50" fill="white"/>
</clipPath>
</defs>
</svg>
