<svg width="210" height="32" viewBox="0 0 210 32" fill="none" xmlns="http://www.w3.org/2000/svg">
<g clip-path="url(#clip0_2037_217)">
<path fill-rule="evenodd" clip-rule="evenodd" d="M17.0405 22.1829C18.1918 23.5784 22.552 23.2043 24.1632 22.2667C22.9885 21.2706 18.5569 21.6313 17.0405 22.1829Z" fill="#F10028"/>
<path fill-rule="evenodd" clip-rule="evenodd" d="M22.3118 22.8704C23.463 23.5118 27.8236 23.3399 29.4345 22.9088C28.2598 22.4512 23.8285 22.617 22.3118 22.8704Z" fill="#F10028"/>
<path fill-rule="evenodd" clip-rule="evenodd" d="M28.3971 26.3258C29.5483 27.7213 33.9089 27.3472 35.5198 26.4093C34.3451 25.4135 29.9135 25.7742 28.3971 26.3258Z" fill="#F10028"/>
<path fill-rule="evenodd" clip-rule="evenodd" d="M20.2116 25.507C21.3628 26.9028 25.7234 26.5287 27.3343 25.5908C26.1596 24.595 21.7283 24.9554 20.2116 25.507Z" fill="#F10028"/>
<path fill-rule="evenodd" clip-rule="evenodd" d="M25.1956 21.9587C26.3468 22.7808 30.7074 22.5603 32.3183 22.0078C31.1436 21.4211 26.712 21.6337 25.1956 21.9587Z" fill="#F10028"/>
<path fill-rule="evenodd" clip-rule="evenodd" d="M18.983 23.9753C20.4745 24.7977 26.1236 24.5771 28.2105 24.0247C26.6888 23.4379 20.9481 23.6506 18.983 23.9753Z" fill="#F10028"/>
<path fill-rule="evenodd" clip-rule="evenodd" d="M27.8082 23.3275C28.6238 23.7711 31.7137 23.6521 32.8551 23.3542C32.0229 23.0377 28.8829 23.1523 27.8082 23.3275Z" fill="#F10028"/>
<path fill-rule="evenodd" clip-rule="evenodd" d="M28.8472 25.117C30.3225 25.8178 35.9099 25.6299 37.9744 25.1592C36.4693 24.6592 30.7906 24.8401 28.8472 25.117Z" fill="#F10028"/>
<path fill-rule="evenodd" clip-rule="evenodd" d="M25.7622 27.0281C26.5781 28.0169 29.6677 27.7516 30.8094 27.0875C29.977 26.3817 26.8369 26.6371 25.7622 27.0281Z" fill="#F10028"/>
<path fill-rule="evenodd" clip-rule="evenodd" d="M32.2114 21.9576C33.7304 22.9464 39.4842 22.6814 41.6098 22.0169C40.0601 21.3112 34.2127 21.5666 32.2114 21.9576Z" fill="#F10028"/>
<path fill-rule="evenodd" clip-rule="evenodd" d="M30.7543 23.7191C32.2734 24.7082 38.0272 24.4429 40.1528 23.7784C38.6031 23.073 32.7556 23.3284 30.7543 23.7191Z" fill="#F10028"/>
<path fill-rule="evenodd" clip-rule="evenodd" d="M41.4861 20.7059H16.5249C19.3653 16.8939 23.8989 14.4258 29.0055 14.4258C34.1121 14.4258 38.6457 16.8939 41.4861 20.7059Z" fill="#F10028"/>
<path fill-rule="evenodd" clip-rule="evenodd" d="M28.4879 2.24902H29.5458V12.0099H28.4879V2.24902Z" fill="#F10028"/>
<path fill-rule="evenodd" clip-rule="evenodd" d="M57.669 16.6145L57.8154 17.6661L43.9792 19.4005L43.8326 18.3489L57.669 16.6145Z" fill="#F10028"/>
<path fill-rule="evenodd" clip-rule="evenodd" d="M47.9676 13.7402L48.2954 14.7497L41.7052 16.9021L41.3771 15.8927L47.9676 13.7402Z" fill="#F10028"/>
<path fill-rule="evenodd" clip-rule="evenodd" d="M43.5274 12.782L43.9888 13.7376L40.1383 15.6503L39.6766 14.6947L43.5274 12.782Z" fill="#F10028"/>
<path fill-rule="evenodd" clip-rule="evenodd" d="M42.1771 8.56689L42.873 9.36689L37.4893 14.1105L36.7931 13.3107L42.1771 8.56689Z" fill="#F10028"/>
<path fill-rule="evenodd" clip-rule="evenodd" d="M38.766 6.76221L39.6068 7.40686L35.2732 13.1328L34.4324 12.4882L38.766 6.76221Z" fill="#F10028"/>
<path fill-rule="evenodd" clip-rule="evenodd" d="M33.8364 8.53662L34.7932 8.98957L33.2736 12.5837L32.3165 12.1308L33.8364 8.53662Z" fill="#F10028"/>
<path fill-rule="evenodd" clip-rule="evenodd" d="M31.6241 5.11157L32.6513 5.3667L31.2691 12.2717L30.2422 12.0166L31.6241 5.11157Z" fill="#F10028"/>
<path fill-rule="evenodd" clip-rule="evenodd" d="M26.6378 6.50122L25.6107 6.75635L26.6402 12.2438L27.667 11.9886L26.6378 6.50122Z" fill="#F10028"/>
<path fill-rule="evenodd" clip-rule="evenodd" d="M24.1774 10.5537L23.2702 11.1006L24.1785 12.7157L25.0857 12.1691L24.1774 10.5537Z" fill="#F10028"/>
<path fill-rule="evenodd" clip-rule="evenodd" d="M16.9846 7.83008L16.2327 8.57713L21.3492 13.7745L22.1013 13.0275L16.9846 7.83008Z" fill="#F10028"/>
<path fill-rule="evenodd" clip-rule="evenodd" d="M14.3563 10.6511L13.788 11.5468L19.2456 15.0145L19.8142 14.1191L14.3563 10.6511Z" fill="#F10028"/>
<path fill-rule="evenodd" clip-rule="evenodd" d="M6.17114 10.4324L5.60248 11.3278L17.4359 16.2954L18.0045 15.3996L6.17114 10.4324Z" fill="#F10028"/>
<path fill-rule="evenodd" clip-rule="evenodd" d="M0.294411 16.7485L-6.10352e-05 17.7685L14.5114 19.3836L14.8059 18.3637L0.294411 16.7485Z" fill="#F10028"/>
<path fill-rule="evenodd" clip-rule="evenodd" d="M10.1804 15.3298L9.73608 16.2936L15.8844 17.9122L16.329 16.9485L10.1804 15.3298Z" fill="#F10028"/>
<path d="M82.1465 14.1845H78.6238C78.274 15.614 77.3746 16.7172 75.6258 16.7172C74.6763 16.7172 73.9021 16.366 73.4021 15.7892C72.7277 15.0372 72.528 14.1845 72.528 10.7492C72.528 7.31381 72.7277 6.46116 73.4021 5.70887C73.9021 5.13199 74.6763 4.78116 75.6258 4.78116C77.3746 4.78116 78.274 5.88458 78.6238 7.31381H82.1465C81.5219 3.57738 78.9235 1.67163 75.6008 1.67163C73.652 1.67163 72.0532 2.37389 70.8041 3.62741C69.0053 5.43309 69.0552 7.66494 69.0552 10.7492C69.0552 13.8334 69.0053 16.0652 70.8041 17.8706C72.0532 19.1244 73.652 19.8267 75.6008 19.8267C78.8986 19.8267 81.5219 17.9206 82.1465 14.1845ZM72.3877 23.6321H76.4956V28.7381H75.931V24.1438H72.9523V28.7381H72.3877V23.6321ZM78.6482 26.7381V28.7381H78.0836V23.6251H80.5115C80.8153 23.6251 81.0671 23.6766 81.2674 23.7798C81.4671 23.8834 81.6166 24.0437 81.7164 24.2622C81.8149 24.4809 81.8647 24.757 81.8647 25.093C81.8647 25.5058 81.8082 25.8313 81.6946 26.0713C81.5816 26.311 81.4013 26.4818 81.1544 26.5842C80.9071 26.6869 80.575 26.7381 80.1579 26.7381H78.6482ZM78.6482 26.2398H80.0014C80.3324 26.2398 80.5874 26.2156 80.7677 26.167C80.9468 26.1176 81.0796 26.019 81.1645 25.8712C81.2506 25.7231 81.2938 25.5003 81.2938 25.2021C81.2938 24.805 81.2323 24.5275 81.1097 24.3681C80.9874 24.2101 80.7631 24.1304 80.4367 24.1304H78.6482V26.2398ZM83.0383 26.1851C83.0383 26.7457 83.0699 27.1916 83.1345 27.5241C83.1989 27.8564 83.309 28.1144 83.4643 28.2988C83.6209 28.4841 83.8327 28.6116 84.1014 28.6843C84.3701 28.7561 84.7272 28.7925 85.1726 28.7925C85.6222 28.7925 85.983 28.7561 86.254 28.6843C86.5244 28.6116 86.7377 28.4841 86.8919 28.3012C87.0464 28.1179 87.1551 27.8584 87.2195 27.5241C87.2841 27.1908 87.316 26.7436 87.316 26.1851C87.316 25.623 87.2841 25.1748 87.2215 24.839C87.1583 24.5048 87.0496 24.2453 86.8943 24.0609C86.7389 23.8779 86.5279 23.7493 86.2604 23.6777C85.9943 23.6059 85.6346 23.5704 85.1863 23.5704C84.7338 23.5704 84.3721 23.6059 84.1026 23.6777C83.8339 23.7493 83.6209 23.8779 83.4655 24.062C83.3104 24.2465 83.2 24.5057 83.1357 24.839C83.071 25.1716 83.0383 25.6207 83.0383 26.1851ZM83.6095 26.1851C83.6095 25.6914 83.6264 25.3147 83.6606 25.0532C83.6956 24.7925 83.7646 24.5889 83.869 24.4443C83.9733 24.2988 84.1252 24.1999 84.3234 24.1473C84.5228 24.0952 84.8077 24.069 85.1793 24.069C85.5474 24.069 85.8323 24.0952 86.0306 24.1473C86.2288 24.1999 86.381 24.2988 86.4841 24.4431C86.5882 24.5877 86.6575 24.7913 86.6914 25.0532C86.7264 25.3135 86.7432 25.6914 86.7432 26.1851C86.7432 26.6744 86.7253 27.0485 86.6902 27.3089C86.6551 27.5698 86.5847 27.772 86.4818 27.9166C86.3786 28.0612 86.2268 28.1601 86.0247 28.2133C85.8242 28.268 85.543 28.2942 85.1793 28.2942C84.8179 28.2942 84.5364 28.268 84.335 28.2133C84.133 28.1601 83.98 28.0612 83.8756 27.9154C83.7713 27.7708 83.7003 27.5663 83.6638 27.3033C83.6278 27.0395 83.6095 26.6674 83.6095 26.1851ZM88.6591 23.6251H89.2237V28.35L92.1209 23.6251H93.0251V28.7381H92.4605V24.062L89.5555 28.7381H88.6591V23.6251ZM96.871 26.3762H95.6867V25.8779H96.8359C97.1104 25.8779 97.3176 25.8529 97.4582 25.8028C97.5979 25.7525 97.6964 25.6617 97.7518 25.5285C97.8074 25.3944 97.8358 25.1974 97.8358 24.9368C97.8358 24.7198 97.7941 24.5478 97.7097 24.4228C97.6248 24.2977 97.4889 24.2089 97.3008 24.1554C97.1127 24.1019 96.8542 24.0757 96.5243 24.0757C96.1704 24.0757 95.902 24.1054 95.7171 24.1644C95.5325 24.2246 95.4009 24.3262 95.3227 24.4693C95.2447 24.6139 95.1957 24.8257 95.1766 25.1067H94.6256C94.6392 24.78 94.6847 24.5161 94.763 24.316C94.841 24.1156 94.9554 23.962 95.1062 23.8552C95.258 23.7478 95.4453 23.6742 95.6684 23.6356C95.8919 23.5969 96.1771 23.5774 96.5243 23.5774C96.9776 23.5774 97.3417 23.6196 97.617 23.7039C97.8912 23.7868 98.0917 23.9233 98.2178 24.1121C98.3436 24.3012 98.4068 24.5525 98.4068 24.8687C98.4068 25.2626 98.3401 25.5558 98.2062 25.747C98.0735 25.9393 97.857 26.0577 97.5567 26.103C97.9164 26.151 98.1619 26.2738 98.2961 26.4708C98.4285 26.6686 98.4955 26.9711 98.4955 27.3796C98.4955 27.7278 98.4285 28.0053 98.2949 28.2113C98.161 28.4161 97.9512 28.565 97.6657 28.6561C97.3799 28.7471 96.9994 28.7925 96.5232 28.7925C95.9925 28.7925 95.587 28.7515 95.3059 28.6683C95.0236 28.5854 94.8253 28.4434 94.7105 28.2433C94.5952 28.0417 94.5375 27.754 94.5375 27.3796V27.2076H95.0812V27.3729C95.0812 27.6481 95.1175 27.8494 95.1925 27.9759C95.2661 28.103 95.4021 28.1871 95.5995 28.2308C95.7965 28.2726 96.1049 28.2942 96.5243 28.2942C96.8133 28.2942 97.0492 28.2738 97.2304 28.2328C97.413 28.1918 97.5535 28.1304 97.6532 28.0498C97.7529 27.9678 97.8234 27.8677 97.8639 27.7458C97.9039 27.6254 97.9239 27.475 97.9239 27.2975C97.9239 26.9894 97.8413 26.7585 97.677 26.6046C97.5115 26.4524 97.2428 26.3762 96.871 26.3762ZM100.438 26.3558V28.2261H102.009C102.253 28.2261 102.444 28.2159 102.586 28.1964C102.728 28.1761 102.844 28.135 102.936 28.0725C103.027 28.0111 103.094 27.9189 103.136 27.7958C103.178 27.6742 103.2 27.5081 103.2 27.299C103.2 27.0212 103.172 26.8152 103.117 26.6834C103.062 26.5513 102.97 26.4638 102.841 26.4204C102.711 26.3774 102.514 26.3558 102.246 26.3558H100.438ZM100.438 24.1304V25.8572H102.057C102.313 25.8572 102.511 25.8313 102.654 25.779C102.796 25.7263 102.898 25.6341 102.958 25.5026C103.019 25.3705 103.05 25.1817 103.05 24.9368C103.05 24.6252 102.994 24.4126 102.884 24.3C102.774 24.1874 102.567 24.1304 102.261 24.1304H100.438ZM102.471 28.7381H99.8737V23.6251H102.328C102.773 23.6251 103.101 23.722 103.309 23.9166C103.517 24.1112 103.621 24.4353 103.621 24.8891C103.621 25.1067 103.608 25.2865 103.579 25.4261C103.551 25.5672 103.489 25.6902 103.397 25.797C103.304 25.9041 103.165 25.9905 102.982 26.0553C103.201 26.1167 103.367 26.1976 103.48 26.3C103.594 26.4009 103.671 26.5275 103.711 26.6799C103.75 26.8312 103.77 27.0281 103.77 27.2705C103.77 27.754 103.671 28.1199 103.473 28.3672C103.274 28.6139 102.94 28.7381 102.471 28.7381ZM104.997 26.1851C104.997 26.7457 105.029 27.1916 105.094 27.5241C105.158 27.8564 105.268 28.1144 105.423 28.2988C105.58 28.4841 105.792 28.6116 106.06 28.6843C106.329 28.7561 106.686 28.7925 107.131 28.7925C107.582 28.7925 107.942 28.7561 108.213 28.6843C108.483 28.6116 108.697 28.4841 108.851 28.3012C109.005 28.1179 109.114 27.8584 109.179 27.5241C109.243 27.1908 109.275 26.7436 109.275 26.1851C109.275 25.623 109.243 25.1748 109.181 24.839C109.117 24.5048 109.008 24.2453 108.853 24.0609C108.698 23.8779 108.487 23.7493 108.219 23.6777C107.953 23.6059 107.594 23.5704 107.145 23.5704C106.693 23.5704 106.331 23.6059 106.061 23.6777C105.793 23.7493 105.58 23.8779 105.425 24.062C105.269 24.2465 105.159 24.5057 105.095 24.839C105.03 25.1716 104.997 25.6207 104.997 26.1851ZM105.568 26.1851C105.568 25.6914 105.585 25.3147 105.62 25.0532C105.655 24.7925 105.724 24.5889 105.828 24.4443C105.932 24.2988 106.084 24.1999 106.282 24.1473C106.482 24.0952 106.767 24.069 107.138 24.069C107.506 24.069 107.791 24.0952 107.99 24.1473C108.188 24.1999 108.34 24.2988 108.443 24.4431C108.547 24.5877 108.616 24.7913 108.65 25.0532C108.686 25.3135 108.702 25.6914 108.702 26.1851C108.702 26.6744 108.684 27.0485 108.649 27.3089C108.614 27.5698 108.544 27.772 108.441 27.9166C108.337 28.0612 108.186 28.1601 107.984 28.2133C107.783 28.268 107.502 28.2942 107.138 28.2942C106.777 28.2942 106.496 28.268 106.294 28.2133C106.092 28.1601 105.939 28.0612 105.835 27.9154C105.73 27.7708 105.659 27.5663 105.623 27.3033C105.587 27.0395 105.568 26.6674 105.568 26.1851ZM110.679 28.2328C110.806 28.0417 110.907 27.845 110.984 27.6425C111.06 27.4398 111.115 27.2248 111.147 26.9996C111.18 26.7745 111.196 26.5275 111.196 26.2601V23.6251H114.658V28.2328H115.025V29.9131H114.508V28.7381H110.883V29.9131H110.367V28.2328H110.679ZM114.094 24.1371H111.754V26.1851C111.754 26.4513 111.746 26.6799 111.73 26.871C111.714 27.0622 111.689 27.2353 111.655 27.3897C111.621 27.5445 111.577 27.6891 111.522 27.8232C111.466 27.9576 111.399 28.0937 111.319 28.2328H114.094V24.1371ZM119.598 27.0313H120.148C120.148 27.4854 120.091 27.8383 119.974 28.0885C119.858 28.3387 119.655 28.5196 119.366 28.6287C119.077 28.7381 118.666 28.7925 118.13 28.7925C117.724 28.7925 117.394 28.7573 117.143 28.6857C116.89 28.6139 116.687 28.4865 116.534 28.3046C116.381 28.1225 116.27 27.8619 116.2 27.5241C116.131 27.1873 116.096 26.7448 116.096 26.1985C116.096 25.6536 116.13 25.2123 116.198 24.8722C116.266 24.5321 116.377 24.2683 116.532 24.0792C116.687 23.8907 116.891 23.7583 117.145 23.6833C117.399 23.6082 117.728 23.5704 118.13 23.5704C118.532 23.5704 118.857 23.6038 119.108 23.6684C119.357 23.7345 119.55 23.8345 119.686 23.971C119.821 24.1065 119.916 24.2735 119.971 24.4751C120.026 24.6756 120.062 24.9336 120.08 25.2498L119.531 25.2428C119.496 24.9074 119.446 24.6616 119.381 24.508C119.316 24.3544 119.191 24.243 119.005 24.1737C118.819 24.1042 118.528 24.069 118.13 24.069C117.829 24.069 117.587 24.0987 117.402 24.1574C117.219 24.218 117.072 24.3227 116.964 24.4751C116.857 24.6264 116.781 24.839 116.736 25.1134C116.69 25.3877 116.668 25.7493 116.668 26.1985C116.668 26.6526 116.69 27.013 116.735 27.2806C116.779 27.548 116.855 27.7551 116.961 27.9038C117.069 28.0533 117.214 28.1554 117.397 28.2113C117.581 28.2671 117.826 28.2942 118.13 28.2942C118.438 28.2942 118.686 28.2747 118.874 28.2363C119.064 28.1988 119.21 28.1327 119.316 28.0405C119.421 27.9486 119.493 27.8232 119.535 27.6641C119.577 27.5046 119.598 27.2932 119.598 27.0313ZM122.677 28.7381V24.1438H121.011V23.6251H124.9L124.894 24.1438H123.249V28.7381H122.677ZM126.673 26.3558V28.2261H128.244C128.488 28.2261 128.679 28.2159 128.821 28.1964C128.963 28.1761 129.079 28.135 129.171 28.0725C129.262 28.0111 129.328 27.9189 129.371 27.7958C129.412 27.6742 129.434 27.5081 129.434 27.299C129.434 27.0212 129.407 26.8152 129.351 26.6834C129.297 26.5513 129.205 26.4638 129.076 26.4204C128.946 26.3774 128.748 26.3558 128.481 26.3558H126.673ZM126.673 24.1304V25.8572H128.291C128.548 25.8572 128.746 25.8313 128.889 25.779C129.03 25.7263 129.133 25.6341 129.193 25.5026C129.254 25.3705 129.284 25.1817 129.284 24.9368C129.284 24.6252 129.229 24.4126 129.119 24.3C129.009 24.1874 128.802 24.1304 128.495 24.1304H126.673ZM128.705 28.7381H126.108V23.6251H128.562C129.008 23.6251 129.335 23.722 129.544 23.9166C129.751 24.1112 129.856 24.4353 129.856 24.8891C129.856 25.1067 129.842 25.2865 129.814 25.4261C129.786 25.5672 129.724 25.6902 129.631 25.797C129.538 25.9041 129.4 25.9905 129.216 26.0553C129.435 26.1167 129.602 26.1976 129.715 26.3C129.828 26.4009 129.906 26.5275 129.946 26.6799C129.985 26.8312 130.005 27.0281 130.005 27.2705C130.005 27.754 129.905 28.1199 129.707 28.3672C129.509 28.6139 129.175 28.7381 128.705 28.7381ZM131.973 25.8712H134.564V26.3692H131.973V28.2261H134.674V28.7381H131.409V23.6251H134.687V24.1304H131.973V25.8712ZM136.649 25.8846H139.628V23.6321H140.192V28.7381H139.628V26.3832H136.649V28.7381H136.085V23.6321H136.649V25.8846ZM142.352 25.8846H145.331V23.6321H145.895V28.7381H145.331V26.3832H142.352V28.7381H141.787V23.6321H142.352V25.8846ZM147.177 28.7381L149.035 23.6251H149.856L151.754 28.7381H151.15L150.768 27.6868H148.198L147.789 28.7381H147.177ZM150.586 27.1884L149.456 24.0484L148.334 27.1884H150.586ZM156.185 26.6971H154.607L153.472 28.7381H152.785L153.988 26.6217C153.649 26.5606 153.377 26.4024 153.17 26.1449C152.962 25.8881 152.859 25.5468 152.859 25.1201C152.859 24.599 152.995 24.2191 153.267 23.9814C153.538 23.7435 153.946 23.6251 154.491 23.6251H156.749V28.7381H156.185V26.6971ZM156.185 26.2054V24.1371H154.375C154.024 24.1371 153.78 24.2261 153.64 24.4047C153.501 24.583 153.43 24.8629 153.43 25.244C153.43 25.5547 153.535 25.7926 153.743 25.9576C153.952 26.1225 154.253 26.2054 154.648 26.2054H156.185ZM162.166 23.6251V25.8572H162.676L164.749 23.6251H165.512L163.173 26.0964L165.784 28.7381H165.002L162.67 26.3625H162.166V28.7381H161.602V23.6251H162.166ZM166.76 26.1851C166.76 26.7457 166.792 27.1916 166.857 27.5241C166.921 27.8564 167.031 28.1144 167.187 28.2988C167.343 28.4841 167.555 28.6116 167.823 28.6843C168.092 28.7561 168.449 28.7925 168.894 28.7925C169.345 28.7925 169.705 28.7561 169.976 28.6843C170.247 28.6116 170.46 28.4841 170.614 28.3012C170.768 28.1179 170.877 27.8584 170.942 27.5241C171.006 27.1908 171.038 26.7436 171.038 26.1851C171.038 25.623 171.006 25.1748 170.944 24.839C170.881 24.5048 170.772 24.2453 170.616 24.0609C170.461 23.8779 170.25 23.7493 169.983 23.6777C169.716 23.6059 169.357 23.5704 168.908 23.5704C168.456 23.5704 168.094 23.6059 167.824 23.6777C167.556 23.7493 167.343 23.8779 167.188 24.062C167.032 24.2465 166.922 24.5057 166.858 24.839C166.793 25.1716 166.76 25.6207 166.76 26.1851ZM167.332 26.1851C167.332 25.6914 167.349 25.3147 167.383 25.0532C167.418 24.7925 167.487 24.5889 167.591 24.4443C167.695 24.2988 167.847 24.1999 168.046 24.1473C168.245 24.0952 168.53 24.069 168.901 24.069C169.27 24.069 169.554 24.0952 169.753 24.1473C169.951 24.1999 170.103 24.2988 170.206 24.4431C170.311 24.5877 170.38 24.7913 170.413 25.0532C170.449 25.3135 170.466 25.6914 170.466 26.1851C170.466 26.6744 170.448 27.0485 170.413 27.3089C170.377 27.5698 170.307 27.772 170.204 27.9166C170.101 28.0612 169.949 28.1601 169.747 28.2133C169.546 28.268 169.265 28.2942 168.901 28.2942C168.54 28.2942 168.259 28.268 168.057 28.2133C167.855 28.1601 167.702 28.0612 167.598 27.9154C167.494 27.7708 167.422 27.5663 167.386 27.3033C167.35 27.0395 167.332 26.6674 167.332 26.1851ZM173.389 23.6184L175.183 28.0076L176.992 23.6184H177.924V28.7381H177.36V24.0347L175.436 28.7381H174.946L173.007 24.0838V28.7381H172.442V23.6184H173.389ZM179.568 23.6321H183.675V28.7381H183.111V24.1438H180.132V28.7381H179.568V23.6321ZM184.957 28.7381L186.815 23.6251H187.637L189.534 28.7381H188.93L188.548 27.6868H185.979L185.57 28.7381H184.957ZM188.366 27.1884L187.237 24.0484L186.115 27.1884H188.366ZM191.34 25.8846H194.319V23.6321H194.883V28.7381H194.319V26.3832H191.34V28.7381H190.776V23.6321H191.34V25.8846ZM196.458 23.6251H197.022V28.35L199.92 23.6251H200.824V28.7381H200.26V24.062L197.354 28.7381H196.458V23.6251ZM205.614 26.6971H204.036L202.902 28.7381H202.214L203.417 26.6217C203.078 26.5606 202.806 26.4024 202.599 26.1449C202.392 25.8881 202.288 25.5468 202.288 25.1201C202.288 24.599 202.424 24.2191 202.696 23.9814C202.967 23.7435 203.375 23.6251 203.921 23.6251H206.179V28.7381H205.614V26.6971ZM205.614 26.2054V24.1371H203.804C203.454 24.1371 203.209 24.2261 203.069 24.4047C202.93 24.583 202.86 24.8629 202.86 25.244C202.86 25.5547 202.964 25.7926 203.172 25.9576C203.381 26.1225 203.682 26.2054 204.077 26.2054H205.614ZM97.1863 9.49505C97.1863 6.61156 96.6617 4.90625 95.4125 3.62741C94.1633 2.34858 92.5144 1.67163 90.6157 1.67163C88.6918 1.67163 87.0429 2.34858 85.794 3.62741C84.4199 5.03163 84.0452 6.46116 84.0452 10.0219V11.5012C84.0452 13.4322 84.0701 16.0902 85.794 17.8706C87.0429 19.1494 88.6918 19.8267 90.6157 19.8267C92.5394 19.8267 94.1633 19.1745 95.4125 17.8706C97.1614 16.0652 97.1863 13.733 97.1863 11.4008V9.49505ZM93.7135 10.423C93.7135 14.0591 93.5637 14.9368 92.8391 15.7641C92.2895 16.391 91.5148 16.7172 90.6157 16.7172C89.7161 16.7172 88.9669 16.366 88.3672 15.7641C87.5429 14.9368 87.5177 13.2565 87.5177 11.4008V10.4984C87.5177 8.29156 87.5678 6.61156 88.3672 5.73389C88.9167 5.10698 89.7161 4.78116 90.6157 4.78116C91.5148 4.78116 92.2895 5.10698 92.8391 5.73389C93.5384 6.51119 93.7135 7.48923 93.7135 10.423ZM113.2 19.676V1.82203H102.133V9.92152C102.133 15.5137 100.859 16.5668 99.085 16.5668H98.5853V19.676H99.9594C103.657 19.676 105.481 17.6198 105.481 10.122V4.93156H109.728V19.676H113.2ZM130.339 19.676V1.82203H126.867V9.11919H120.845V1.82203H117.373V19.676H120.845V12.2034H126.867V19.676H130.339ZM152.649 19.676V1.82203H149.176V19.676H152.649ZM147.252 14.1092C147.252 10.8495 144.954 8.54232 141.482 8.54232H137.959V1.82203H134.486V19.676H141.482C144.929 19.676 147.252 17.3691 147.252 14.1092ZM143.78 14.1092C143.78 15.589 142.781 16.5668 141.207 16.5668H137.959V11.6516H141.207C142.781 11.6516 143.78 12.6546 143.78 14.1092ZM177.333 19.676V1.82203H173.86V16.5668H168.813V1.82203H165.341V16.5668H160.269V1.82203H156.796V19.676H177.333ZM185.002 19.676V10.3477L191.248 19.676H195.495L188.925 10.1973L194.896 1.82203H190.749L185.002 10.2977V1.82203H181.53V19.676H185.002ZM209.511 9.49505C209.511 6.61156 208.986 4.90625 207.737 3.62741C206.488 2.34858 204.839 1.67163 202.94 1.67163C201.017 1.67163 199.368 2.34858 198.119 3.62741C196.745 5.03163 196.37 6.46116 196.37 10.0219V11.5012C196.37 13.4322 196.395 16.0902 198.119 17.8706C199.368 19.1494 201.017 19.8267 202.94 19.8267C204.864 19.8267 206.488 19.1745 207.737 17.8706C209.486 16.0652 209.511 13.733 209.511 11.4008V9.49505ZM206.038 10.423C206.038 14.0591 205.888 14.9368 205.164 15.7641C204.614 16.391 203.84 16.7172 202.94 16.7172C202.041 16.7172 201.291 16.366 200.692 15.7641C199.867 14.9368 199.842 13.2565 199.842 11.4008V10.4984C199.842 8.29156 199.893 6.61156 200.692 5.73389C201.241 5.10698 202.041 4.78116 202.94 4.78116C203.84 4.78116 204.614 5.10698 205.164 5.73389C205.863 6.51119 206.038 7.48923 206.038 10.423Z" fill="#F10028"/>
</g>
<defs>
<clipPath id="clip0_2037_217">
<rect width="210" height="32" fill="white"/>
</clipPath>
</defs>
</svg>
