<svg width="28" height="28" viewBox="0 0 28 28" fill="none" xmlns="http://www.w3.org/2000/svg">
<path fill-rule="evenodd" clip-rule="evenodd" d="M19.1902 9.47185C19.1902 12.1308 16.8599 14.2904 13.9908 14.2904C11.1362 14.2904 8.80597 12.1308 8.80597 9.48534C8.80597 6.82634 11.1362 4.66675 13.9908 4.66675C16.8599 4.66675 19.1902 6.82634 19.1902 9.47185ZM16.1463 9.48534C16.1463 8.37855 15.1705 7.48772 13.9908 7.48772C12.8111 7.48772 11.8499 8.37855 11.8353 9.48534C11.8353 10.5921 12.8111 11.483 13.9908 11.483C15.1851 11.483 16.1463 10.5786 16.1463 9.48534ZM19.1173 17.0567C18.1852 17.6101 17.1658 17.9881 16.1026 18.2175L19.0008 20.917C19.598 21.4704 19.598 22.3612 19.0008 22.9146C18.4037 23.468 17.4425 23.468 16.8453 22.9146L13.9908 20.2691L11.1508 22.9146C10.8595 23.1981 10.4662 23.333 10.073 23.333C9.67979 23.333 9.28655 23.1846 8.99527 22.9146C8.39814 22.3612 8.39814 21.4704 8.99527 20.917L11.8935 18.231C10.8449 18.0015 9.81086 17.6101 8.87876 17.0702C8.16511 16.6518 7.94665 15.7745 8.41271 15.1131C8.86419 14.4517 9.7963 14.2493 10.5099 14.6677C12.6363 15.9094 15.3744 15.9094 17.5007 14.6677C18.2144 14.2493 19.1465 14.4517 19.598 15.1131C20.0495 15.7745 19.831 16.6383 19.1173 17.0567Z" fill="white"/>
</svg>
