<svg width="28" height="28" viewBox="0 0 28 28" fill="none" xmlns="http://www.w3.org/2000/svg">
<path d="M22.0993 5.96567L5.37136 12.526C4.45515 12.7988 4.48291 13.7319 5.16313 13.9615L9.35552 15.3109L10.9658 20.3927C11.1602 20.9526 11.3268 21.1535 11.6599 21.1679C12.007 21.1679 12.1458 21.0387 12.5067 20.7085C12.9371 20.2922 13.5757 19.6462 14.6029 18.6126L18.9619 21.9431C19.7671 22.4024 20.3501 22.1584 20.5445 21.1679L23.2653 7.18587C23.5569 5.96567 22.8628 5.60679 22.0993 5.96567ZM10.008 14.9951L19.5311 8.80801C20.0031 8.47784 20.1419 8.85108 19.9336 9.09511L12.0348 16.4594L11.6322 20.1343L10.008 14.9951Z" fill="white"/>
</svg>
