<svg width="71" height="12" viewBox="0 0 71 12" fill="none" xmlns="http://www.w3.org/2000/svg">
<g clip-path="url(#clip0_2032_93)">
<path d="M0.92511 0.612826H2.23258L5.03967 8.6776L8.37265 0.0646973L11.5303 8.6776L14.6402 0.612826H15.948L11.4825 11.9354L8.35657 3.3225L5.00751 11.9354L0.92511 0.612826ZM22.965 0.612826V1.74199H18.6273V4.93554H22.8375V6.0647H18.6273V10.2419H22.965V11.371H17.4469V0.612826H22.965ZM25.134 0.612826H27.0478C28.111 0.612826 28.924 0.838891 29.4878 1.29025C30.1254 1.78496 30.4447 2.52702 30.4447 3.51605C30.4447 4.44083 30.0937 5.14534 29.3921 5.62921C30.0722 5.80108 30.5801 6.14792 30.9151 6.66934C31.25 7.19076 31.4172 7.74741 31.4172 8.33889C31.4172 8.82276 31.3139 9.2687 31.1064 9.67747C30.899 10.0859 30.6414 10.4141 30.3329 10.6615C29.7373 11.1345 28.8869 11.371 27.7811 11.371H25.134V0.612826ZM26.314 1.74199V5.33889H27.207C27.3666 5.33889 27.5208 5.33076 27.6697 5.3145C27.8186 5.29825 27.9966 5.25528 28.204 5.1856C28.4111 5.11554 28.5918 5.02147 28.746 4.90341C28.9003 4.78496 29.0304 4.60767 29.1368 4.37115C29.2432 4.13425 29.2964 3.86018 29.2964 3.54857C29.2964 3.21528 29.2325 2.92728 29.105 2.68534C28.9772 2.44341 28.8337 2.26341 28.6744 2.14534C28.5148 2.02689 28.3235 1.93554 28.1003 1.87089C27.8768 1.80663 27.7068 1.7687 27.5897 1.75825C27.473 1.74741 27.3559 1.74199 27.2391 1.74199H26.314ZM26.314 6.40341V10.2419H27.6697C28.5309 10.2419 29.1529 10.0913 29.5356 9.7905C30.0033 9.44637 30.2372 8.95166 30.2372 8.30637C30.2372 7.58599 29.9341 7.05915 29.3282 6.72586C28.9454 6.51063 28.3449 6.40341 27.5262 6.40341H26.314ZM39.2797 2.11283L38.3389 2.74186C38.1685 2.40857 37.9615 2.13992 37.7169 1.93554C37.3977 1.68818 36.9992 1.5647 36.5208 1.5647C35.9892 1.5647 35.5586 1.7176 35.229 2.02418C34.8995 2.33076 34.7345 2.73141 34.7345 3.22573C34.7345 3.59154 34.8673 3.90315 35.1333 4.16134C35.3458 4.37657 35.7182 4.60225 36.2494 4.83876L37.2702 5.2905C38.025 5.62379 38.5727 5.9625 38.913 6.30663C39.4232 6.82263 39.6785 7.47296 39.6785 8.25799C39.6785 9.23657 39.3593 10.0324 38.7216 10.6452C38.0836 11.258 37.2809 11.5646 36.3133 11.5646C35.3565 11.5646 34.5856 11.2742 34.0008 10.6936C33.5223 10.2206 33.1928 9.58612 33.0121 8.79025L34.1604 8.46779C34.2346 9.00547 34.4474 9.46225 34.7984 9.83889C35.1915 10.2364 35.7021 10.4354 36.3294 10.4354C37.01 10.4354 37.5358 10.2287 37.9083 9.8145C38.2803 9.4007 38.4663 8.89786 38.4663 8.30637C38.4663 7.79037 38.291 7.37115 37.94 7.04831C37.7379 6.85476 37.3127 6.60741 36.6643 6.30663L35.7075 5.85489C35.0587 5.55373 34.5856 5.25799 34.2878 4.96767C33.7991 4.49463 33.5545 3.90857 33.5545 3.20986C33.5545 2.38186 33.8335 1.71257 34.3916 1.2016C34.9496 0.69102 35.665 0.435536 36.5365 0.435536C37.196 0.435536 37.7647 0.596955 38.2432 0.919407C38.6791 1.20973 39.0244 1.60767 39.2797 2.11283ZM43.0275 0.612826V4.98392H48.4817V0.612826H49.6617V11.371H48.4817V6.11308H43.0275V11.371H41.8471V0.612826H43.0275ZM61.2958 9.96779C60.2271 11.0323 58.917 11.5646 57.3646 11.5646C55.8125 11.5646 54.502 11.0323 53.4333 9.96779C52.3651 8.90328 51.8308 7.58057 51.8308 6.00005C51.8308 4.4087 52.3678 3.08328 53.4414 2.02418C54.5154 0.965084 55.8228 0.435536 57.3646 0.435536C58.9063 0.435536 60.2141 0.965084 61.2877 2.02418C62.3617 3.08328 62.8983 4.4087 62.8983 6.00005C62.8983 7.58057 62.3644 8.90328 61.2958 9.96779ZM60.4266 2.85489C59.5868 1.99476 58.566 1.5647 57.3646 1.5647C56.1631 1.5647 55.1427 1.99476 54.3026 2.85489C53.4628 3.71502 53.0426 4.76367 53.0426 6.00005C53.0426 7.23644 53.4628 8.28508 54.3026 9.14521C55.1427 10.0053 56.1631 10.4354 57.3646 10.4354C58.566 10.4354 59.5868 10.0053 60.4266 9.14521C61.2667 8.28508 61.6866 7.23644 61.6866 6.00005C61.6866 4.76367 61.2667 3.71502 60.4266 2.85489ZM65.0674 0.612826H66.9972C68.209 0.612826 69.1023 0.8656 69.6765 1.37115C70.3248 1.93012 70.649 2.69889 70.649 3.67747C70.649 4.51631 70.37 5.22857 69.812 5.81463C69.2539 6.4007 68.4111 6.69373 67.2843 6.69373H66.2474V11.371H65.0674V0.612826ZM66.2474 1.74199V5.56457H67.2204C67.9219 5.56457 68.4723 5.3927 68.8712 5.04857C69.2696 4.70444 69.469 4.22599 69.469 3.61283C69.469 2.3656 68.6878 1.74199 67.1247 1.74199H66.2474Z" fill="white" fill-opacity="0.219608"/>
<path d="M0.00445557 0.627231H1.31231L4.11901 8.69201L7.45199 0.0791016L10.6097 8.69201L13.7195 0.627231H15.0274L10.5618 11.9498L7.4363 3.33691L4.08724 11.9498L0.00445557 0.627231ZM22.0443 0.627231V1.75639H17.7066V4.94994H21.9169V6.0791H17.7066V10.2563H22.0443V11.3854H16.5266V0.627231H22.0443ZM24.2134 0.627231H26.1271C27.1904 0.627231 28.0037 0.853295 28.5671 1.30465C29.2052 1.79936 29.524 2.54142 29.524 3.53046C29.524 4.45523 29.173 5.15975 28.4714 5.64362C29.152 5.81549 29.6595 6.16233 29.9944 6.68375C30.3293 7.20517 30.4969 7.76181 30.4969 8.3533C30.4969 8.83717 30.3932 9.2831 30.1858 9.69188C29.9783 10.1006 29.7207 10.4285 29.4122 10.6759C28.8171 11.1489 27.9666 11.3854 26.8608 11.3854H24.2134V0.627231ZM25.3934 1.75639V5.3533H26.2867C26.4459 5.3533 26.6002 5.34517 26.7491 5.32891C26.898 5.31304 27.0759 5.26968 27.2834 5.20001C27.4908 5.12994 27.6715 5.03588 27.8254 4.91781C27.9796 4.79936 28.1101 4.62207 28.2161 4.38555C28.3225 4.14904 28.3757 3.87459 28.3757 3.56297C28.3757 3.22968 28.3118 2.94207 28.1844 2.70013C28.0569 2.45781 27.9134 2.27781 27.7538 2.15975C27.5942 2.0413 27.4028 1.94994 27.1797 1.8853C26.9565 1.82104 26.7862 1.7831 26.6695 1.77265C26.5523 1.76181 26.4356 1.75639 26.3185 1.75639H25.3934ZM25.3934 6.41781V10.2563H26.7491C27.6103 10.2563 28.2322 10.1061 28.615 9.80491C29.0827 9.46078 29.3165 8.96607 29.3165 8.32078C29.3165 7.60039 29.0138 7.07355 28.4075 6.74026C28.0248 6.52504 27.4242 6.41781 26.6055 6.41781H25.3934ZM38.359 2.12723L37.4182 2.75626C37.2483 2.42297 37.0408 2.15433 36.7962 1.94994C36.4774 1.70259 36.0786 1.5791 35.6001 1.5791C35.0685 1.5791 34.6379 1.732 34.3084 2.03859C33.9788 2.34517 33.8139 2.74581 33.8139 3.24013C33.8139 3.60594 33.947 3.91755 34.2127 4.17575C34.4255 4.39097 34.7975 4.61665 35.3292 4.85317L36.3496 5.30491C37.1047 5.6382 37.6521 5.97691 37.9923 6.32104C38.5025 6.83704 38.7578 7.48775 38.7578 8.27239C38.7578 9.25097 38.439 10.0468 37.801 10.6596C37.1629 11.2724 36.3603 11.579 35.3927 11.579C34.4358 11.579 33.665 11.2886 33.0805 10.708C32.6021 10.235 32.2725 9.60052 32.0915 8.80465L33.2397 8.4822C33.3144 9.01988 33.5268 9.47704 33.8778 9.8533C34.2712 10.2512 34.7814 10.4498 35.4088 10.4498C36.0893 10.4498 36.6156 10.2431 36.9876 9.82891C37.3596 9.4151 37.5457 8.91226 37.5457 8.32078C37.5457 7.80478 37.3704 7.38555 37.0194 7.06271C36.8177 6.86917 36.3921 6.6222 35.7437 6.32104L34.7868 5.8693C34.1384 5.56813 33.665 5.27239 33.3676 4.98207C32.8784 4.50904 32.6338 3.92297 32.6338 3.22426C32.6338 2.39626 32.9129 1.72697 33.4709 1.216C34.0293 0.705424 34.7443 0.44994 35.6162 0.44994C36.2753 0.44994 36.8441 0.61136 37.3225 0.933811C37.7585 1.22413 38.1041 1.62207 38.359 2.12723ZM42.1069 0.627231V4.99833H47.5611V0.627231H48.7411V11.3854H47.5611V6.12749H42.1069V11.3854H40.9269V0.627231H42.1069ZM60.3751 9.9822C59.3069 11.0467 57.9963 11.579 56.4439 11.579C54.8919 11.579 53.5813 11.0467 52.5131 9.9822C51.4444 8.91768 50.9101 7.59497 50.9101 6.01446C50.9101 4.4231 51.4471 3.09768 52.5207 2.03859C53.5947 0.979489 54.9026 0.44994 56.4439 0.44994C57.9856 0.44994 59.2935 0.979489 60.3671 2.03859C61.4411 3.09768 61.9781 4.4231 61.9781 6.01446C61.9781 7.59497 61.4438 8.91768 60.3751 9.9822ZM59.5059 2.8693C58.6661 2.00917 57.6454 1.5791 56.4439 1.5791C55.2425 1.5791 54.222 2.00917 53.3819 2.8693C52.5422 3.72942 52.1223 4.77807 52.1223 6.01446C52.1223 7.25084 52.5422 8.29949 53.3819 9.15962C54.222 10.0197 55.2425 10.4498 56.4439 10.4498C57.6454 10.4498 58.6661 10.0197 59.5059 9.15962C60.346 8.29949 60.7659 7.25084 60.7659 6.01446C60.7659 4.77807 60.346 3.72942 59.5059 2.8693ZM64.1467 0.627231H66.0766C67.2887 0.627231 68.1817 0.880005 68.7558 1.38555C69.4046 1.94452 69.7288 2.7133 69.7288 3.69188C69.7288 4.53071 69.4497 5.24297 68.8913 5.82904C68.3333 6.4151 67.4908 6.70813 66.3636 6.70813H65.3271V11.3854H64.1467V0.627231ZM65.3271 1.75639V5.57897H66.2997C67.0017 5.57897 67.5517 5.4071 67.9505 5.06297C68.3493 4.71884 68.5484 4.24039 68.5484 3.62723C68.5484 2.38 67.7672 1.75639 66.204 1.75639H65.3271Z" fill="white"/>
</g>
<defs>
<clipPath id="clip0_2032_93">
<rect width="71" height="12" fill="white"/>
</clipPath>
</defs>
</svg>
