<svg width="28" height="28" viewBox="0 0 28 28" fill="none" xmlns="http://www.w3.org/2000/svg">
<path d="M23.0089 9.06862C22.7819 8.0936 21.9676 7.36893 20.9931 7.26352C18.6836 7 16.3341 7 13.998 7C11.6618 7 9.32564 7 7.00283 7.25034C6.04167 7.36893 5.22735 8.08042 5.00041 9.06862C4.66667 10.4653 4.66667 11.9805 4.66667 13.4167C4.66667 14.8528 4.66667 16.3812 4.98706 17.7779C5.214 18.7529 6.02832 19.4776 7.00283 19.583C9.31229 19.8333 11.6618 19.8333 13.998 19.8333C16.3341 19.8333 18.6703 19.8333 20.9931 19.583C21.9676 19.4776 22.7819 18.7529 23.0089 17.7779C23.3293 16.3812 23.3293 14.8528 23.3293 13.4167C23.3426 11.9805 23.3426 10.4653 23.0089 9.06862ZM12.0489 15.9333V10.821L16.9883 13.3771L12.0489 15.9333Z" fill="white"/>
</svg>
